<svg width="256" height="256" viewBox="0 0 256 256" fill="none" xmlns="http://www.w3.org/2000/svg">
<rect width="256" height="256" fill="white"/>
<path d="M124.455 24.2156C131.987 23.2743 145.097 25.5783 152.258 27.9583C171.753 34.4803 187.895 48.438 197.184 66.8046C214.96 102.495 202.905 144.59 166.664 162.649L206 230.97L181.588 230.964C179.513 228.028 175.656 220.822 173.741 217.47L158.737 191.25L149.949 176.094C145.032 167.652 144.915 169.284 144.964 159.357L144.998 147.501C150.525 146.418 154.361 145.279 159.42 142.538C170.453 136.536 178.656 126.391 182.223 114.333C186.14 100.789 183.672 86.2689 176.959 74.0566C174.037 68.8375 170.338 64.0962 165.987 59.9974C155.464 50.1605 140.505 44.6703 126.139 45.1789C111.278 45.7998 97.2669 52.2899 87.1687 63.2299C80.2517 70.7077 75.4843 79.9217 73.3726 89.8943C71.8119 97.4004 72.1983 106.226 72.2265 113.959L72.248 140.473L72.1495 200.93C72.1627 210.57 71.8988 221.445 72.2462 231C65.3521 230.858 58.0657 230.982 51.1418 230.988C50.9643 202.31 50.9535 173.632 51.1092 144.956L51.1209 115.346C51.1248 104.408 50.5985 94.7135 52.9655 83.9442C55.6961 71.9659 61.2957 60.8333 69.2813 51.5079C83.9926 34.5521 102.205 25.7492 124.455 24.2156Z" fill="black"/>
<path d="M88.9228 230.966L88.9915 145.915C88.9844 131.476 89.0324 116.98 88.9749 102.549C88.8834 79.4512 106.344 61.7709 129.565 62.2459C139.85 62.5314 149.593 66.929 156.621 74.4574C165.421 83.7247 167.379 93.5824 167.053 105.811H146.261C146.042 100.451 145.371 93.9257 141.826 89.6028C133.786 79.8036 118.079 81.563 112.284 92.8232C110.621 96.0541 110.309 98.3482 110.008 101.967L110.028 131.791C110.028 135.687 110.254 142.991 109.968 146.623L110.104 147.288C111.304 147.47 115.092 147.373 116.454 147.371L128.969 147.351L128.932 168.236C123.509 167.848 115.486 168.18 109.885 168.133C110.179 169.764 110.043 175.738 110.035 177.7L110.014 196.053L110.014 219.813C110.014 222.131 110.198 228.852 109.94 230.771C109.611 231.004 109.777 230.947 109.464 230.998C103.24 230.739 95.2917 230.972 88.9228 230.966Z" fill="black"/>
</svg>
